<svg width="45" height="53" viewBox="0 0 45 53" fill="none" xmlns="http://www.w3.org/2000/svg">
<path d="M36.8581 50.4C33.9998 53.1708 30.879 52.7333 27.8748 51.4208C24.6956 50.0792 21.779 50.0208 18.4248 51.4208C14.2248 53.2292 12.0081 52.7042 9.49981 50.4C-4.73352 35.7292 -2.63352 13.3875 13.5248 12.5708C17.4623 12.775 20.204 14.7292 22.5081 14.9042C25.9498 14.2042 29.2456 12.1917 32.9206 12.4542C37.3248 12.8042 40.6498 14.5542 42.8373 17.7042C33.7373 23.1583 35.8956 35.1458 44.2373 38.5C42.5748 42.875 40.4165 47.2208 36.829 50.4292L36.8581 50.4ZM22.2165 12.3958C21.779 5.89167 27.0581 0.525 33.1248 0C33.9706 7.525 26.2998 13.125 22.2165 12.3958Z" fill="white"/>
</svg>
