<svg width="89" height="89" viewBox="0 0 89 89" fill="none" xmlns="http://www.w3.org/2000/svg">
<path d="M77.8751 27.8128L63.0418 35.2295M63.0418 35.2295L61.1876 36.1566L44.5001 44.5003M63.0418 35.2295V48.2087M63.0418 35.2295L27.8126 16.6878M44.5001 44.5003L11.1251 27.8128M44.5001 44.5003V79.7295M57.7685 12.5419L65.1852 16.4357C73.1618 20.6224 77.152 22.7139 79.3695 26.4778C81.5834 30.2381 81.5834 34.9217 81.5834 44.2852V44.7191C81.5834 54.079 81.5834 58.7626 79.3695 62.5228C77.152 66.2868 73.1618 68.382 65.1852 72.5687L57.7685 76.4587C51.2567 79.8741 48.0007 81.5837 44.5001 81.5837C40.9994 81.5837 37.7435 79.8778 31.2317 76.4587L23.815 72.565C15.8384 68.3783 11.8482 66.2868 9.63062 62.5228C7.41675 58.7626 7.41675 54.079 7.41675 44.7228V44.289C7.41675 34.9254 7.41675 30.2418 9.63062 26.4815C11.8482 22.7176 15.8384 20.6224 23.815 16.4394L31.2317 12.5456C37.7435 9.12653 40.9994 7.41699 44.5001 7.41699C48.0007 7.41699 51.2567 9.12283 57.7685 12.5419Z" stroke="#189172" stroke-width="4" stroke-linecap="round"/>
</svg>
