<svg width="65" height="65" viewBox="0 0 65 65" fill="none" xmlns="http://www.w3.org/2000/svg">
<g clip-path="url(#clip0_640_2267)">
<path d="M58.8025 37.1414V27.8586H55.715V30.9461H49.5197V27.8586H46.4322V37.1414H40.2369V34.0539H43.3244V30.9461H40.2369V24.7812H37.1494V30.9562H24.7588V27.8688H21.6713V37.1516H18.5635V65H21.6713V40.2289H27.8666V46.4242H37.1494V40.2289H46.4322V43.3367H55.715V40.2289H61.9104V65H64.9999V37.1414H58.8025ZM37.1494 37.1414H34.0416V43.3367H30.9541V37.1414H24.7588V34.0539H37.1494V37.1414ZM55.715 37.1414H52.6275V40.2289H49.5197V34.0539H55.715V37.1414Z" fill="#189172"/>
<path d="M49.5199 49.5324H55.7152V55.7074H49.5199V49.5324ZM43.3246 58.8152H49.5199V64.9902H43.3246V58.8152ZM37.1496 49.5324H43.3246V55.7074H37.1496V49.5324ZM30.9543 58.8152H37.1496V64.9902H30.9543V58.8152ZM24.759 49.5324H30.9543V55.7074H24.759V49.5324ZM55.7152 18.5762V24.7715H58.8027V18.5762H61.9105V15.4684H58.8027V12.3809H55.7152V15.4684H18.5637V12.3809H55.7152V9.29336H15.4762V3.09805H12.3887V9.29336H9.28086V3.09805H12.3887V-0.00976562H6.19336V9.29336H-0.00195312V12.3809H3.08555V18.5762H6.19336V12.3809H15.4762V18.5762H55.7152Z" fill="#189172"/>
<path d="M6.19336 18.5762V64.9902H9.28086V21.6637H12.3887V64.9902H15.4762V18.5762H6.19336Z" fill="#189172"/>
</g>
<defs>
<clipPath id="clip0_640_2267">
<rect width="65" height="65" fill="white"/>
</clipPath>
</defs>
</svg>
