<svg width="85" height="85" viewBox="0 0 85 85" fill="none" xmlns="http://www.w3.org/2000/svg">
<path d="M77.9291 42.3247L57.3909 34.943L48.8059 24.1639C48.0595 23.2512 47.1191 22.5162 46.0532 22.0122C44.9873 21.5082 43.8225 21.2478 42.6434 21.25H21.4041C20.1052 21.25 18.8259 21.5676 17.6778 22.175C16.5297 22.7824 15.5474 23.6612 14.8166 24.735L7.61281 35.3149C6.11424 37.5176 5.31276 40.1201 5.3125 42.7842V63.75C5.3125 64.4545 5.59235 65.1301 6.0905 65.6283C6.58864 66.1264 7.26427 66.4063 7.96875 66.4063H13.6584C14.2363 68.686 15.5577 70.7079 17.4138 72.1522C19.2698 73.5965 21.5545 74.3807 23.9062 74.3807C26.258 74.3807 28.5427 73.5965 30.3987 72.1522C32.2548 70.7079 33.5762 68.686 34.1541 66.4063H50.8459C51.4238 68.686 52.7452 70.7079 54.6013 72.1522C56.4573 73.5965 58.742 74.3807 61.0938 74.3807C63.4455 74.3807 65.7302 73.5965 67.5862 72.1522C69.4423 70.7079 70.7637 68.686 71.3416 66.4063H77.0312C77.7357 66.4063 78.4114 66.1264 78.9095 65.6283C79.4076 65.1301 79.6875 64.4545 79.6875 63.75V44.8242C79.6874 44.2772 79.5185 43.7436 79.2038 43.2963C78.889 42.8489 78.4439 42.5096 77.9291 42.3247ZM23.9062 69.0625C22.8555 69.0625 21.8284 68.7509 20.9548 68.1672C20.0811 67.5835 19.4002 66.7538 18.9981 65.783C18.596 64.8123 18.4908 63.7441 18.6958 62.7136C18.9008 61.6831 19.4068 60.7365 20.1497 59.9935C20.8927 59.2505 21.8393 58.7446 22.8698 58.5396C23.9004 58.3346 24.9685 58.4398 25.9393 58.8419C26.91 59.244 27.7397 59.9249 28.3234 60.7985C28.9072 61.6722 29.2188 62.6993 29.2188 63.75C29.2166 65.1583 28.6563 66.5084 27.6604 67.5042C26.6646 68.5 25.3146 69.0604 23.9062 69.0625ZM61.0938 69.0625C60.043 69.0625 59.0159 68.7509 58.1423 68.1672C57.2686 67.5835 56.5877 66.7538 56.1856 65.783C55.7836 64.8123 55.6783 63.7441 55.8833 62.7136C56.0883 61.6831 56.5943 60.7365 57.3372 59.9935C58.0802 59.2505 59.0268 58.7446 60.0573 58.5396C61.0879 58.3346 62.156 58.4398 63.1268 58.8419C64.0975 59.244 64.9272 59.9249 65.5109 60.7985C66.0947 61.6722 66.4062 62.6993 66.4062 63.75C66.4041 65.1583 65.8438 66.5084 64.8479 67.5042C63.8521 68.5 62.5021 69.0604 61.0938 69.0625ZM74.375 61.0938H71.3416C70.7637 58.8141 69.4423 56.7921 67.5862 55.3478C65.7302 53.9035 63.4455 53.1194 61.0938 53.1194C58.742 53.1194 56.4573 53.9035 54.6013 55.3478C52.7452 56.7921 51.4238 58.8141 50.8459 61.0938H34.1541C33.5762 58.8141 32.2548 56.7921 30.3987 55.3478C28.5427 53.9035 26.258 53.1194 23.9062 53.1194C21.5545 53.1194 19.2698 53.9035 17.4138 55.3478C15.5577 56.7921 14.2363 58.8141 13.6584 61.0938H10.625V42.7842C10.625 41.1849 11.1063 39.6226 12.0062 38.3005L19.2073 27.726C19.4508 27.3676 19.7783 27.0742 20.1612 26.8714C20.5441 26.6686 20.9708 26.5626 21.4041 26.5625H42.6434C43.0299 26.5626 43.4118 26.647 43.7623 26.8099C44.1128 26.9727 44.4235 27.2101 44.6728 27.5055L53.7041 38.8424C54.0112 39.2279 54.4196 39.5204 54.8834 39.687L74.375 46.6916V61.0938Z" fill="#189172"/>
</svg>
