<svg width="82" height="82" viewBox="0 0 82 82" fill="none" xmlns="http://www.w3.org/2000/svg">
<path d="M68.1817 67.4226C68.1752 67.4015 68.1666 67.3811 68.156 67.3617L53.4409 36.0159L60.1931 25.4136L60.2219 25.3687C60.6397 24.672 60.8604 23.8749 60.8604 23.0625C60.8604 22.2501 60.6397 21.453 60.2219 20.7563C60.1995 20.7178 60.1738 20.6794 60.1482 20.6409L53.1718 10.676V2.5625C53.1718 2.05279 52.9693 1.56395 52.6089 1.20353C52.2485 0.843108 51.7596 0.640625 51.2499 0.640625C50.7402 0.640625 50.2514 0.843108 49.891 1.20353C49.5305 1.56395 49.3281 2.05279 49.3281 2.5625V10.6087L47.5023 12.8894C46.722 13.8644 45.7325 14.6514 44.607 15.1923C43.4814 15.7331 42.2487 16.0139 40.9999 16.0139C39.7512 16.0139 38.5184 15.7331 37.3929 15.1923C36.2673 14.6514 35.2778 13.8644 34.4976 12.8894L32.6718 10.6087V2.5625C32.6718 2.05279 32.4693 1.56395 32.1089 1.20353C31.7485 0.843108 31.2596 0.640625 30.7499 0.640625C30.2402 0.640625 29.7514 0.843108 29.391 1.20353C29.0305 1.56395 28.8281 2.05279 28.8281 2.5625V10.676L21.8517 20.6409C21.826 20.6794 21.8004 20.7178 21.778 20.7563C21.3602 21.453 21.1395 22.2501 21.1395 23.0625C21.1395 23.8749 21.3602 24.672 21.778 25.3687L21.8068 25.4136L28.559 36.0159L13.8438 67.3617C13.8332 67.3811 13.8246 67.4015 13.8182 67.4226C13.5263 68.1044 13.4081 68.848 13.4741 69.5867C13.5401 70.3254 13.7883 71.0362 14.1965 71.6555C14.6047 72.2747 15.1601 72.7831 15.8129 73.135C16.4658 73.4869 17.1958 73.6713 17.9374 73.6719H64.0624C64.8044 73.6719 65.5347 73.4878 66.188 73.1361C66.8413 72.7844 67.3971 72.2761 67.8057 71.6568C68.2142 71.0375 68.4627 70.3265 68.5289 69.5875C68.5951 68.8485 68.4769 68.1046 68.1849 67.4226H68.1817ZM25.0676 23.3828C25.0152 23.291 24.9863 23.1878 24.9835 23.0821C24.9807 22.9765 25.0041 22.8718 25.0516 22.7774L30.8524 14.4877L31.4931 15.2917C32.6334 16.7168 34.0796 17.8672 35.7247 18.6577C37.3698 19.4482 39.1716 19.8587 40.9967 19.8587C42.8219 19.8587 44.6237 19.4482 46.2687 18.6577C47.9138 17.8672 49.3601 16.7168 50.5004 15.2917L51.141 14.4877L56.9419 22.771C56.9918 22.8641 57.0179 22.9681 57.0179 23.0737C57.0179 23.1793 56.9918 23.2833 56.9419 23.3764L50.2153 33.9467H31.8038L25.0676 23.3828ZM64.5942 69.5398C64.5374 69.6299 64.4583 69.7037 64.3646 69.7542C64.2708 69.8047 64.1657 69.8302 64.0592 69.8281H17.9374C17.8333 69.8283 17.7307 69.8032 17.6385 69.7548C17.5462 69.7064 17.4672 69.6362 17.4082 69.5504C17.3492 69.4646 17.312 69.3657 17.2999 69.2623C17.2877 69.1589 17.301 69.054 17.3385 68.9569L31.9703 37.7969H50.0295L64.6582 68.9569C64.6969 69.0517 64.7113 69.1547 64.7001 69.2565C64.689 69.3583 64.6525 69.4557 64.5942 69.5398Z" fill="#189172"/>
</svg>
