<svg width="72" height="78" viewBox="0 0 72 78" fill="none" xmlns="http://www.w3.org/2000/svg">
<path d="M5.7771 37.0527V68.2106C5.7771 70.2765 6.57313 72.2578 7.99007 73.7186C9.40701 75.1794 11.3288 76.0001 13.3327 76.0001H58.666C60.6698 76.0001 62.5916 75.1794 64.0086 73.7186C65.4255 72.2578 66.2215 70.2765 66.2215 68.2106V37.0527" stroke="#189172" stroke-width="4" stroke-linecap="round" stroke-linejoin="round"/>
<path d="M35.9999 15.6316C35.9999 12.0163 34.6069 8.54901 32.1272 5.9926C29.6476 3.43618 26.2844 2 22.7777 2C20.2729 2 17.8706 3.02584 16.0995 4.85186C14.3283 6.67787 13.3333 9.15447 13.3333 11.7368C13.3333 14.3192 14.3283 16.7958 16.0995 18.6218C17.8706 20.4478 20.2729 21.4737 22.7777 21.4737H35.9999M35.9999 15.6316V21.4737M35.9999 15.6316C35.9999 12.0163 37.393 8.54901 39.8726 5.9926C42.3523 3.43618 45.7154 2 49.2221 2C51.727 2 54.1292 3.02584 55.9004 4.85186C57.6715 6.67787 58.6666 9.15447 58.6666 11.7368C58.6666 13.0155 58.4223 14.2816 57.9477 15.463C57.473 16.6443 56.7774 17.7177 55.9004 18.6218C55.0234 19.526 53.9822 20.2432 52.8364 20.7325C51.6905 21.2218 50.4624 21.4737 49.2221 21.4737H35.9999" stroke="#189172" stroke-width="4" stroke-linejoin="round"/>
<path d="M36 37.0526V76M2 21.4736H70V37.0526H2V21.4736Z" stroke="#189172" stroke-width="4" stroke-linecap="round" stroke-linejoin="round"/>
</svg>
