<svg width="50" height="55" viewBox="0 0 50 55" fill="none" xmlns="http://www.w3.org/2000/svg">
<path d="M23.2347 26.2207L0.206055 50.3478C0.464665 51.2643 0.929394 52.1095 1.56472 52.8189C2.20004 53.5282 2.98914 54.0829 3.8717 54.4405C4.75425 54.7982 5.70689 54.9493 6.6568 54.8823C7.6067 54.8154 8.52872 54.5321 9.35238 54.0542L35.264 39.2967L23.2347 26.2207Z" fill="#EA4335"/>
<path d="M46.5206 22.1193L35.3156 15.7012L22.7029 26.7692L35.3669 39.2618L46.4866 32.9125C47.4717 32.3967 48.2968 31.6211 48.8725 30.6698C49.4482 29.7185 49.7525 28.6277 49.7525 27.5158C49.7525 26.4038 49.4482 25.3131 48.8725 24.3618C48.2968 23.4105 47.4717 22.6349 46.4866 22.1191L46.5206 22.1193Z" fill="#FBBC04"/>
<path d="M0.206067 4.56445C0.0669528 5.07907 -0.00233695 5.61005 6.01238e-05 6.14313V48.7685C0.00143378 49.3014 0.0706595 49.832 0.206067 50.3474L24.0242 26.8381L0.206067 4.56445Z" fill="#4285F4"/>
<path d="M23.4063 27.4561L35.3155 15.7014L9.43828 0.875153C8.46466 0.304981 7.35732 0.00301735 6.22904 1.19193e-05C3.42909 -0.00542978 0.967503 1.85291 0.206055 4.54752L23.4063 27.4561Z" fill="#34A853"/>
</svg>
