<svg width="100" height="100" viewBox="0 0 100 100" fill="none" xmlns="http://www.w3.org/2000/svg">
<path d="M30.8334 29.167H19.1667C18.5037 29.167 17.8678 29.4304 17.399 29.8992C16.9301 30.3681 16.6667 31.004 16.6667 31.667V68.3337C16.6667 68.662 16.7314 68.9871 16.857 69.2904C16.9827 69.5937 17.1668 69.8693 17.399 70.1014C17.6311 70.3336 17.9067 70.5177 18.21 70.6434C18.5134 70.769 18.8384 70.8337 19.1667 70.8337H30.8334C31.1617 70.8337 31.4868 70.769 31.7901 70.6434C32.0934 70.5177 32.369 70.3336 32.6012 70.1014C32.8333 69.8693 33.0175 69.5937 33.1431 69.2904C33.2688 68.9871 33.3334 68.662 33.3334 68.3337V31.667C33.3334 31.004 33.07 30.3681 32.6012 29.8992C32.1323 29.4304 31.4965 29.167 30.8334 29.167ZM80.8334 29.167H69.1668C68.5037 29.167 67.8678 29.4304 67.399 29.8992C66.9301 30.3681 66.6668 31.004 66.6668 31.667V68.3337C66.6668 68.662 66.7314 68.9871 66.857 69.2904C66.9827 69.5937 67.1668 69.8693 67.399 70.1014C67.6311 70.3336 67.9067 70.5177 68.21 70.6434C68.5134 70.769 68.8384 70.8337 69.1668 70.8337H80.8334C81.1617 70.8337 81.4868 70.769 81.7901 70.6434C82.0934 70.5177 82.369 70.3336 82.6012 70.1014C82.8333 69.8693 83.0175 69.5937 83.1431 69.2904C83.2688 68.9871 83.3334 68.662 83.3334 68.3337V31.667C83.3334 31.004 83.07 30.3681 82.6012 29.8992C82.1323 29.4304 81.4965 29.167 80.8334 29.167Z" stroke="#189172" stroke-width="3" stroke-linecap="round" stroke-linejoin="round"/>
<path d="M33.3334 50H66.6667M4.16675 60V40C4.16675 39.337 4.43014 38.7011 4.89898 38.2322C5.36782 37.7634 6.00371 37.5 6.66675 37.5H14.1667C14.8298 37.5 15.4657 37.7634 15.9345 38.2322C16.4034 38.7011 16.6667 39.337 16.6667 40V60C16.6667 60.663 16.4034 61.2989 15.9345 61.7678C15.4657 62.2366 14.8298 62.5 14.1667 62.5H6.66675C6.00371 62.5 5.36782 62.2366 4.89898 61.7678C4.43014 61.2989 4.16675 60.663 4.16675 60ZM95.8334 60V40C95.8334 39.337 95.57 38.7011 95.1012 38.2322C94.6323 37.7634 93.9965 37.5 93.3334 37.5H85.8334C85.1704 37.5 84.5345 37.7634 84.0656 38.2322C83.5968 38.7011 83.3334 39.337 83.3334 40V60C83.3334 60.663 83.5968 61.2989 84.0656 61.7678C84.5345 62.2366 85.1704 62.5 85.8334 62.5H93.3334C93.9965 62.5 94.6323 62.2366 95.1012 61.7678C95.57 61.2989 95.8334 60.663 95.8334 60Z" stroke="#189172" stroke-width="3" stroke-linecap="round" stroke-linejoin="round"/>
</svg>
