<svg width="69" height="69" viewBox="0 0 69 69" fill="none" xmlns="http://www.w3.org/2000/svg">
<path d="M5.62072 35.5583H25.3432C26.0905 35.5583 26.8071 35.8551 27.3355 36.3835C27.8639 36.9119 28.1607 37.6285 28.1607 38.3758V63.7333C28.1607 64.5095 27.5282 65.142 26.752 65.142H4.21197C3.83835 65.142 3.48003 64.9936 3.21584 64.7294C2.95164 64.4652 2.80322 64.1069 2.80322 63.7333V38.3758C2.80322 37.6285 3.10007 36.9119 3.62845 36.3835C4.15683 35.8551 4.87348 35.5583 5.62072 35.5583ZM42.2482 31.332H64.7882C64.7882 31.332 66.197 31.332 66.197 32.7408V63.7333C66.197 63.7333 66.197 65.142 64.7882 65.142H42.2482C42.2482 65.142 40.8395 65.142 40.8395 63.7333V32.7408C40.8395 32.7408 40.8395 31.332 42.2482 31.332Z" stroke="#189172" stroke-width="4" stroke-linecap="round" stroke-linejoin="round"/>
<path d="M7.02954 35.5582V5.97445C7.02954 5.58202 7.13882 5.19734 7.34513 4.86352C7.55145 4.5297 7.84665 4.25992 8.19765 4.08442C8.54865 3.90892 8.94159 3.83462 9.33244 3.86987C9.72328 3.90511 10.0966 4.04849 10.4105 4.28395L22.244 13.1591C23.3078 13.9555 23.9345 15.209 23.9345 16.5401V35.5582M11.2558 56.6895H19.7083M40.8395 48.237H66.197M40.8395 56.6895H66.197" stroke="#189172" stroke-width="4" stroke-linecap="round" stroke-linejoin="round"/>
</svg>
