<svg width="70" height="70" viewBox="0 0 70 70" fill="none" xmlns="http://www.w3.org/2000/svg">
<path d="M24.375 5C22.5516 5 20.803 5.72433 19.5136 7.01364C18.2243 8.30295 17.5 10.0516 17.5 11.875V58.125C17.5 59.9484 18.2243 61.697 19.5136 62.9864C20.803 64.2757 22.5516 65 24.375 65H45.625C47.4484 65 49.197 64.2757 50.4864 62.9864C51.7757 61.697 52.5 59.9484 52.5 58.125V11.875C52.5 10.0516 51.7757 8.30295 50.4864 7.01364C49.197 5.72433 47.4484 5 45.625 5H24.375ZM21.25 11.875C21.25 10.15 22.65 8.75 24.375 8.75H45.625C47.35 8.75 48.75 10.15 48.75 11.875V58.125C48.75 59.85 47.35 61.25 45.625 61.25H24.375C22.65 61.25 21.25 59.85 21.25 58.125V11.875ZM30.625 52.5C30.1277 52.5 29.6508 52.6975 29.2992 53.0492C28.9475 53.4008 28.75 53.8777 28.75 54.375C28.75 54.8723 28.9475 55.3492 29.2992 55.7008C29.6508 56.0525 30.1277 56.25 30.625 56.25H39.375C39.8723 56.25 40.3492 56.0525 40.7008 55.7008C41.0525 55.3492 41.25 54.8723 41.25 54.375C41.25 53.8777 41.0525 53.4008 40.7008 53.0492C40.3492 52.6975 39.8723 52.5 39.375 52.5H30.625Z" fill="#189172"/>
</svg>
