<svg width="182" height="27" viewBox="0 0 182 27" fill="none" xmlns="http://www.w3.org/2000/svg">
<path d="M10.29 26.2504C7.16328 26.2504 4.72495 25.5854 2.97495 24.2554C1.22495 22.9254 0.233285 20.9887 -4.88157e-05 18.4454L6.47495 17.5004C6.52162 18.3871 6.90662 19.1104 7.62995 19.6704C8.37662 20.2071 9.33329 20.4754 10.5 20.4754C12.6466 20.4754 13.72 19.9154 13.72 18.7954C13.72 18.2821 13.4166 17.8737 12.81 17.5704C12.2266 17.2437 11.2583 16.9171 9.90495 16.5904C7.01162 15.8904 4.88828 14.9571 3.53495 13.7904C2.18162 12.6237 1.51662 10.9787 1.53995 8.85539C1.56328 7.24539 1.98328 5.83372 2.79995 4.62039C3.63995 3.38372 4.80662 2.42706 6.29995 1.75039C7.81662 1.05039 9.58995 0.70039 11.62 0.70039C14.1166 0.70039 16.17 1.33039 17.78 2.59039C19.4133 3.85039 20.3466 5.56539 20.58 7.73539L14.455 8.78539C14.3383 8.10872 13.9766 7.56039 13.37 7.14039C12.7866 6.69706 12.075 6.47539 11.235 6.47539C10.4416 6.47539 9.79995 6.63872 9.30995 6.96539C8.84329 7.26872 8.60995 7.68872 8.60995 8.22539C8.60995 8.71539 8.84329 9.14706 9.30995 9.52039C9.79995 9.87039 10.71 10.2087 12.04 10.5354C13.9533 11.0021 15.5516 11.5387 16.835 12.1454C18.1416 12.7287 19.1216 13.4871 19.775 14.4204C20.4516 15.3537 20.79 16.5787 20.79 18.0954C20.79 19.7054 20.3466 21.1287 19.46 22.3654C18.5966 23.5787 17.3716 24.5354 15.785 25.2354C14.2216 25.9121 12.39 26.2504 10.29 26.2504ZM23.1098 25.9004V0.000390291H29.6198V7.91039L29.3748 11.3054C30.0981 10.1387 30.9965 9.24039 32.0698 8.61039C33.1665 7.98039 34.3798 7.66539 35.7098 7.66539C37.9265 7.66539 39.5948 8.41206 40.7148 9.90539C41.8348 11.3754 42.3831 13.5571 42.3598 16.4504L42.2898 25.9004H35.7798L35.8498 16.8004C35.8498 14.7004 35.1615 13.6504 33.7848 13.6504C33.2248 13.6504 32.6998 13.8371 32.2098 14.2104C31.7198 14.5604 31.2881 15.1904 30.9148 16.1004C30.5415 16.9871 30.2381 18.2354 30.0048 19.8454C29.7715 21.4321 29.6315 23.4504 29.5848 25.9004H23.1098ZM64.2192 8.05039V25.9004H57.7442L57.9192 23.3454C56.7292 25.3054 54.8975 26.2854 52.4242 26.2854C50.0675 26.2854 48.1892 25.5154 46.7892 23.9754C45.3892 22.4354 44.6892 20.3237 44.6892 17.6404C44.6892 15.6337 45.1092 13.8837 45.9492 12.3904C46.8125 10.8971 47.9442 9.74206 49.3442 8.92539C50.7442 8.08539 52.2492 7.66539 53.8592 7.66539C55.0959 7.66539 56.1459 7.88706 57.0092 8.33039C57.8959 8.75039 58.5842 9.34539 59.0742 10.1154L59.5992 8.05039H64.2192ZM54.8742 13.2654C53.8009 13.2654 52.9492 13.6737 52.3192 14.4904C51.6892 15.2837 51.3742 16.2637 51.3742 17.4304C51.3742 18.4804 51.6192 19.2854 52.1092 19.8454C52.5992 20.4054 53.2642 20.6854 54.1042 20.6854C55.0609 20.6854 55.8892 20.2887 56.5892 19.4954C57.3125 18.7021 57.6742 17.6637 57.6742 16.3804C57.6742 15.4237 57.4175 14.6654 56.9042 14.1054C56.4142 13.5454 55.7375 13.2654 54.8742 13.2654ZM67.851 25.9004V7.91039H74.291L74.046 11.3404C74.7693 10.1737 75.656 9.27539 76.706 8.64539C77.7793 7.99206 78.981 7.66539 80.311 7.66539C81.5477 7.66539 82.6677 7.94539 83.671 8.50539C84.6743 9.06539 85.4443 10.0104 85.981 11.3404C86.7743 10.0571 87.7893 9.12372 89.026 8.54039C90.2627 7.95706 91.511 7.66539 92.771 7.66539C94.9877 7.66539 96.6327 8.41206 97.706 9.90539C98.7793 11.3754 99.3043 13.5571 99.281 16.4504L99.211 25.9004H92.701L92.771 16.8004C92.771 14.7004 92.1177 13.6504 90.811 13.6504C90.2743 13.6504 89.7727 13.8371 89.306 14.2104C88.8393 14.5604 88.4193 15.1904 88.046 16.1004C87.696 16.9871 87.4043 18.2354 87.171 19.8454C86.961 21.4321 86.8327 23.4504 86.786 25.9004H80.311V16.8004C80.311 14.7004 79.6577 13.6504 78.351 13.6504C77.8143 13.6504 77.3127 13.8371 76.846 14.2104C76.3793 14.5604 75.9593 15.1904 75.586 16.1004C75.236 16.9871 74.9443 18.2354 74.711 19.8454C74.501 21.4321 74.3727 23.4504 74.326 25.9004H67.851ZM102.578 25.9004V7.91039H109.018L108.773 11.3404C109.496 10.1737 110.383 9.27539 111.433 8.64539C112.506 7.99206 113.708 7.66539 115.038 7.66539C116.274 7.66539 117.394 7.94539 118.398 8.50539C119.401 9.06539 120.171 10.0104 120.708 11.3404C121.501 10.0571 122.516 9.12372 123.753 8.54039C124.989 7.95706 126.238 7.66539 127.498 7.66539C129.714 7.66539 131.359 8.41206 132.433 9.90539C133.506 11.3754 134.031 13.5571 134.008 16.4504L133.938 25.9004H127.428L127.498 16.8004C127.498 14.7004 126.844 13.6504 125.538 13.6504C125.001 13.6504 124.499 13.8371 124.033 14.2104C123.566 14.5604 123.146 15.1904 122.773 16.1004C122.423 16.9871 122.131 18.2354 121.898 19.8454C121.688 21.4321 121.559 23.4504 121.513 25.9004H115.038V16.8004C115.038 14.7004 114.384 13.6504 113.078 13.6504C112.541 13.6504 112.039 13.8371 111.573 14.2104C111.106 14.5604 110.686 15.1904 110.313 16.1004C109.963 16.9871 109.671 18.2354 109.438 19.8454C109.228 21.4321 109.099 23.4504 109.053 25.9004H102.578ZM155.889 8.05039V25.9004H149.414L149.589 23.3454C148.399 25.3054 146.567 26.2854 144.094 26.2854C141.737 26.2854 139.859 25.5154 138.459 23.9754C137.059 22.4354 136.359 20.3237 136.359 17.6404C136.359 15.6337 136.779 13.8837 137.619 12.3904C138.482 10.8971 139.614 9.74206 141.014 8.92539C142.414 8.08539 143.919 7.66539 145.529 7.66539C146.766 7.66539 147.816 7.88706 148.679 8.33039C149.566 8.75039 150.254 9.34539 150.744 10.1154L151.269 8.05039H155.889ZM146.544 13.2654C145.471 13.2654 144.619 13.6737 143.989 14.4904C143.359 15.2837 143.044 16.2637 143.044 17.4304C143.044 18.4804 143.289 19.2854 143.779 19.8454C144.269 20.4054 144.934 20.6854 145.774 20.6854C146.731 20.6854 147.559 20.2887 148.259 19.4954C148.982 18.7021 149.344 17.6637 149.344 16.3804C149.344 15.4237 149.087 14.6654 148.574 14.1054C148.084 13.5454 147.407 13.2654 146.544 13.2654ZM165.681 26.2854C163.744 26.2854 162.228 25.7604 161.131 24.7104C160.058 23.6604 159.521 22.1321 159.521 20.1254V0.000390291H166.031V19.5304C166.031 19.9737 166.148 20.3004 166.381 20.5104C166.614 20.6971 166.918 20.7904 167.291 20.7904C167.758 20.7904 168.166 20.6621 168.516 20.4054L170.021 25.0254C169.601 25.3754 169.006 25.6671 168.236 25.9004C167.466 26.1571 166.614 26.2854 165.681 26.2854ZM176.96 26.2854C175.024 26.2854 173.507 25.7604 172.41 24.7104C171.337 23.6604 170.8 22.1321 170.8 20.1254V0.000390291H177.31V19.5304C177.31 19.9737 177.427 20.3004 177.66 20.5104C177.894 20.6971 178.197 20.7904 178.57 20.7904C179.037 20.7904 179.445 20.6621 179.795 20.4054L181.3 25.0254C180.88 25.3754 180.285 25.6671 179.515 25.9004C178.745 26.1571 177.894 26.2854 176.96 26.2854Z" fill="url(#paint0_linear_640_2244)"/>
<defs>
<linearGradient id="paint0_linear_640_2244" x1="90.1277" y1="-9.09961" x2="90.1277" y2="40.9004" gradientUnits="userSpaceOnUse">
<stop stop-color="#A8E6CF"/>
<stop offset="1" stop-color="#5D8073"/>
</linearGradient>
</defs>
</svg>
